<svg id="visual" viewBox="0 0 900 600" width="900" height="600" xmlns="http://www.w3.org/2000/svg" xmlns:xlink="http://www.w3.org/1999/xlink" version="1.1"><rect x="0" y="0" width="900" height="600" fill="#002233"></rect><path d="M0 502L21.5 484.7C43 467.3 86 432.7 128.8 423.7C171.7 414.7 214.3 431.3 257.2 450.2C300 469 343 490 385.8 497.7C428.7 505.3 471.3 499.7 514.2 481.7C557 463.7 600 433.3 642.8 429.2C685.7 425 728.3 447 771.2 464.2C814 481.3 857 493.7 878.5 499.8L900 506L900 601L878.5 601C857 601 814 601 771.2 601C728.3 601 685.7 601 642.8 601C600 601 557 601 514.2 601C471.3 601 428.7 601 385.8 601C343 601 300 601 257.2 601C214.3 601 171.7 601 128.8 601C86 601 43 601 21.5 601L0 601Z" fill="#00ffff" stroke-linecap="round" stroke-linejoin="miter"></path></svg>